<svg width="28" height="25" viewBox="0 0 28 25" fill="none" xmlns="http://www.w3.org/2000/svg">
<g clip-path="url(#clip0_815_2129)">
<path d="M19.16 16.4567L20.6074 14.933C20.8335 14.695 21.227 14.8616 21.227 15.2044V22.1274C21.227 23.3892 20.2546 24.4129 19.056 24.4129H3.13492C1.93632 24.4129 0.963867 23.3892 0.963867 22.1274V5.36752C0.963867 4.10576 1.93632 3.08207 3.13492 3.08207H15.5054C15.8265 3.08207 15.9894 3.49155 15.7632 3.73438L14.3159 5.258C14.248 5.32942 14.1575 5.36752 14.058 5.36752H3.13492V22.1274H19.056V16.7233C19.056 16.6233 19.0922 16.5281 19.16 16.4567ZM26.2431 6.84829L14.3656 19.3516L10.2768 19.8277C9.09175 19.9658 8.08312 18.9135 8.21428 17.6565L8.66659 13.3523L20.5441 0.849009C21.5798 -0.241336 23.2534 -0.241336 24.2846 0.849009L26.2386 2.90591C27.2743 3.99625 27.2743 5.76271 26.2431 6.84829ZM21.7743 8.31954L19.1464 5.55321L10.7427 14.4045L10.4125 17.5137L13.366 17.1661L21.7743 8.31954ZM24.7052 4.52476L22.7513 2.46786C22.5659 2.27265 22.2628 2.27265 22.0819 2.46786L20.6843 3.93911L23.3122 6.70545L24.7098 5.2342C24.8907 5.03422 24.8907 4.71997 24.7052 4.52476Z" fill="#ECECEC"/>
</g>
<defs>
<clipPath id="clip0_815_2129">
<rect width="26.0527" height="24.378" fill="white" transform="translate(0.963867 0.0351562)"/>
</clipPath>
</defs>
</svg>
