<svg width="48" height="48" viewBox="0 0 48 48" fill="none" xmlns="http://www.w3.org/2000/svg">
<path d="M24 24.468H5.5C5.5 33.684 17.097 41.608 17.097 41.608H24" stroke="#AAAAAA" stroke-linecap="round" stroke-linejoin="round"/>
<path d="M10.884 26.5742C10.884 33.3662 18.512 38.3782 18.512 38.3782M24 24.4682H42.5C42.5 33.6842 30.903 41.6082 30.903 41.6082H24M14.094 24.4682C12.748 19.4292 21.748 15.9652 29.824 14.8952L30.614 13.4412L33.798 17.3112L32.051 17.5952C31.196 20.4052 26.916 24.4682 26.916 24.4682" stroke="#AAAAAA" stroke-linecap="round" stroke-linejoin="round"/>
<path d="M15.51 24.4682C15.798 21.8742 18.806 18.9542 30.282 15.4492" stroke="#AAAAAA" stroke-linecap="round" stroke-linejoin="round"/>
<path d="M30.5781 15.8101C26.2381 17.9841 21.1781 20.4821 17.6321 24.4681M31.4251 16.8371C26.9151 22.9631 24.0001 24.4681 24.0001 24.4681M21.5051 24.4681C24.2251 22.8781 30.9951 16.3141 30.9951 16.3141M33.0771 16.4531L41.2281 9.84712C41.3619 9.73879 41.4731 9.60514 41.5553 9.4538C41.6375 9.30246 41.689 9.1364 41.7069 8.96513C41.7248 8.79386 41.7088 8.62074 41.6598 8.45567C41.6107 8.2906 41.5296 8.13681 41.4211 8.00312C41.3127 7.86936 41.179 7.75827 41.0276 7.67618C40.8763 7.5941 40.7103 7.54262 40.5391 7.5247C40.3678 7.50678 40.1947 7.52276 40.0297 7.57173C39.8646 7.6207 39.7108 7.70171 39.5771 7.81012L31.4251 14.4151" stroke="#AAAAAA" stroke-linecap="round" stroke-linejoin="round"/>
<path d="M29.825 14.895L32.0509 17.595" stroke="#AAAAAA" stroke-linecap="round" stroke-linejoin="round"/>
</svg>
