<svg width="24" height="20" viewBox="0 0 24 20" fill="none" xmlns="http://www.w3.org/2000/svg">
<path d="M4.75 5.14473C4.75 4.80369 4.81547 4.46599 4.94268 4.15091C5.06989 3.83582 5.25634 3.54953 5.49139 3.30838C5.72643 3.06723 6.00548 2.87593 6.31258 2.74542C6.61969 2.61491 6.94884 2.54774 7.28125 2.54774C7.61366 2.54774 7.94281 2.61491 8.24992 2.74542C8.55702 2.87593 8.83607 3.06723 9.07111 3.30838C9.30616 3.54953 9.49261 3.83582 9.61982 4.15091C9.74703 4.46599 9.8125 4.80369 9.8125 5.14473C9.8125 5.8335 9.54582 6.49406 9.07111 6.98109C8.59641 7.46812 7.95258 7.74173 7.28125 7.74173C6.60992 7.74173 5.96609 7.46812 5.49139 6.98109C5.01668 6.49406 4.75 5.8335 4.75 5.14473ZM7.28125 0.816406C6.16237 0.816406 5.08931 1.27243 4.29814 2.08414C3.50697 2.89586 3.0625 3.99679 3.0625 5.14473C3.0625 6.29268 3.50697 7.3936 4.29814 8.20532C5.08931 9.01704 6.16237 9.47306 7.28125 9.47306C8.40013 9.47306 9.47319 9.01704 10.2644 8.20532C11.0555 7.3936 11.5 6.29268 11.5 5.14473C11.5 3.99679 11.0555 2.89586 10.2644 2.08414C9.47319 1.27243 8.40013 0.816406 7.28125 0.816406ZM15.7188 6.0104C15.7188 5.55122 15.8965 5.11085 16.213 4.78616C16.5295 4.46148 16.9587 4.27907 17.4062 4.27907C17.8538 4.27907 18.283 4.46148 18.5995 4.78616C18.916 5.11085 19.0938 5.55122 19.0938 6.0104C19.0938 6.46958 18.916 6.90995 18.5995 7.23463C18.283 7.55932 17.8538 7.74173 17.4062 7.74173C16.9587 7.74173 16.5295 7.55932 16.213 7.23463C15.8965 6.90995 15.7188 6.46958 15.7188 6.0104ZM17.4062 2.54774C16.5111 2.54774 15.6527 2.91255 15.0198 3.56193C14.3868 4.2113 14.0312 5.09204 14.0312 6.0104C14.0312 6.92875 14.3868 7.8095 15.0198 8.45887C15.6527 9.10825 16.5111 9.47306 17.4062 9.47306C18.3014 9.47306 19.1598 9.10825 19.7927 8.45887C20.4257 7.8095 20.7812 6.92875 20.7812 6.0104C20.7812 5.09204 20.4257 4.2113 19.7927 3.56193C19.1598 2.91255 18.3014 2.54774 17.4062 2.54774ZM11.5 11.2044C11.5472 11.2044 11.5962 11.2044 11.6434 11.2079C11.4494 11.7717 11.4512 12.387 11.6485 12.9496C11.5995 12.9406 11.5498 12.9359 11.5 12.9357H3.0625C2.83872 12.9357 2.62411 13.0269 2.46588 13.1893C2.30764 13.3516 2.21875 13.5718 2.21875 13.8014V13.9693L2.2255 14.0542C2.29085 14.5901 2.48704 15.1005 2.79588 15.5379C3.346 16.3135 4.54413 17.2641 7.28125 17.2641C9.664 17.2641 10.8807 16.5438 11.5169 15.8444C11.581 16.388 11.8071 16.878 12.1446 17.2641C11.9835 17.4484 11.8488 17.6553 11.7447 17.8787C10.7238 18.5418 9.286 18.9954 7.28125 18.9954C4.11212 18.9954 2.35713 17.8631 1.43069 16.5559C0.94766 15.8716 0.643789 15.0717 0.548125 14.2325C0.539724 14.1537 0.534095 14.0745 0.53125 13.9953V13.8014C0.53125 13.1126 0.797935 12.4521 1.27264 11.965C1.74734 11.478 2.39117 11.2044 3.0625 11.2044H11.5ZM14.0312 11.2044C13.8075 11.2044 13.5929 11.2956 13.4346 11.4579C13.2764 11.6203 13.1875 11.8405 13.1875 12.0701C13.1875 12.2996 13.2764 12.5198 13.4346 12.6822C13.5929 12.8445 13.8075 12.9357 14.0312 12.9357H22.4688C22.6925 12.9357 22.9071 12.8445 23.0654 12.6822C23.2236 12.5198 23.3125 12.2996 23.3125 12.0701C23.3125 11.8405 23.2236 11.6203 23.0654 11.4579C22.9071 11.2956 22.6925 11.2044 22.4688 11.2044H14.0312ZM14.0312 14.6671C13.8075 14.6671 13.5929 14.7583 13.4346 14.9206C13.2764 15.0829 13.1875 15.3031 13.1875 15.5327C13.1875 15.7623 13.2764 15.9825 13.4346 16.1448C13.5929 16.3072 13.8075 16.3984 14.0312 16.3984H22.4688C22.6925 16.3984 22.9071 16.3072 23.0654 16.1448C23.2236 15.9825 23.3125 15.7623 23.3125 15.5327C23.3125 15.3031 23.2236 15.0829 23.0654 14.9206C22.9071 14.7583 22.6925 14.6671 22.4688 14.6671H14.0312ZM14.0312 18.1297C13.8075 18.1297 13.5929 18.2209 13.4346 18.3833C13.2764 18.5456 13.1875 18.7658 13.1875 18.9954C13.1875 19.225 13.2764 19.4452 13.4346 19.6075C13.5929 19.7698 13.8075 19.861 14.0312 19.861H22.4688C22.6925 19.861 22.9071 19.7698 23.0654 19.6075C23.2236 19.4452 23.3125 19.225 23.3125 18.9954C23.3125 18.7658 23.2236 18.5456 23.0654 18.3833C22.9071 18.2209 22.6925 18.1297 22.4688 18.1297H14.0312Z" fill="#444054" fill-opacity="0.64"/>
</svg>
